<mxfile host="app.diagrams.net" agent="Mozilla/5.0 (Windows NT 10.0; Win64; x64) AppleWebKit/537.36 (KHTML, like Gecko) Chrome/138.0.0.0 Safari/537.36" version="27.2.0">
  <diagram name="Page-1" id="txSsU_KN7uJWVvbnfmkW">
    <mxGraphModel dx="2664" dy="773" grid="1" gridSize="10" guides="1" tooltips="1" connect="1" arrows="1" fold="1" page="0" pageScale="1" pageWidth="850" pageHeight="1100" math="0" shadow="0">
      <root>
        <mxCell id="0" />
        <mxCell id="1" parent="0" />
        <mxCell id="VD8CVpqhnoBm4fBh5e66-1" value="" style="rounded=0;whiteSpace=wrap;html=1;fillColor=none;strokeColor=light-dark(#141414, #dedede);dashed=1;strokeWidth=1;" parent="1" vertex="1">
          <mxGeometry x="-80" y="130" width="210" height="710" as="geometry" />
        </mxCell>
        <mxCell id="VD8CVpqhnoBm4fBh5e66-3" value="&lt;font style=&quot;font-size: 24px;&quot;&gt;Sources&lt;/font&gt;" style="rounded=0;whiteSpace=wrap;html=1;fillColor=default;strokeColor=none;" parent="1" vertex="1">
          <mxGeometry x="-30" y="110" width="100" height="30" as="geometry" />
        </mxCell>
        <mxCell id="VD8CVpqhnoBm4fBh5e66-5" value="" style="rounded=0;whiteSpace=wrap;html=1;fillColor=none;strokeColor=light-dark(#141414, #dedede);dashed=1;strokeWidth=1;" parent="1" vertex="1">
          <mxGeometry x="160" y="120" width="960" height="720" as="geometry" />
        </mxCell>
        <mxCell id="VD8CVpqhnoBm4fBh5e66-6" value="&lt;font style=&quot;font-size: 24px;&quot;&gt;Data Warehouse&lt;/font&gt;" style="rounded=0;whiteSpace=wrap;html=1;fillColor=default;strokeColor=none;" parent="1" vertex="1">
          <mxGeometry x="405" y="110" width="435" height="30" as="geometry" />
        </mxCell>
        <mxCell id="VD8CVpqhnoBm4fBh5e66-7" value="" style="rounded=0;whiteSpace=wrap;html=1;fillColor=none;strokeColor=light-dark(#141414, #dedede);dashed=1;strokeWidth=1;" parent="1" vertex="1">
          <mxGeometry x="1200" y="130" width="240" height="710" as="geometry" />
        </mxCell>
        <mxCell id="VD8CVpqhnoBm4fBh5e66-8" value="&lt;font style=&quot;font-size: 24px;&quot;&gt;Consume&lt;/font&gt;" style="rounded=0;whiteSpace=wrap;html=1;fillColor=default;strokeColor=none;" parent="1" vertex="1">
          <mxGeometry x="1270" y="110" width="100" height="30" as="geometry" />
        </mxCell>
        <mxCell id="VD8CVpqhnoBm4fBh5e66-9" value="Bronze Layer" style="rounded=0;whiteSpace=wrap;html=1;fillColor=#ffe6cc;strokeColor=#d79b00;fontSize=20;" parent="1" vertex="1">
          <mxGeometry x="200" y="160" width="240" height="40" as="geometry" />
        </mxCell>
        <mxCell id="VD8CVpqhnoBm4fBh5e66-10" value="" style="rounded=0;whiteSpace=wrap;html=1;fillColor=none;strokeColor=#d79b00;fontSize=20;" parent="1" vertex="1">
          <mxGeometry x="200" y="210" width="240" height="590" as="geometry" />
        </mxCell>
        <mxCell id="VD8CVpqhnoBm4fBh5e66-11" value="Silver Layer" style="rounded=0;whiteSpace=wrap;html=1;fillColor=#d5e8d4;strokeColor=#82b366;fontSize=20;" parent="1" vertex="1">
          <mxGeometry x="520" y="160" width="240" height="40" as="geometry" />
        </mxCell>
        <mxCell id="VD8CVpqhnoBm4fBh5e66-12" value="" style="rounded=0;whiteSpace=wrap;html=1;fillColor=none;strokeColor=#82b366;fontSize=20;" parent="1" vertex="1">
          <mxGeometry x="520" y="210" width="240" height="590" as="geometry" />
        </mxCell>
        <mxCell id="VD8CVpqhnoBm4fBh5e66-13" value="Gold Layer" style="rounded=0;whiteSpace=wrap;html=1;fillColor=#fff2cc;strokeColor=#d6b656;fontSize=20;" parent="1" vertex="1">
          <mxGeometry x="840" y="160" width="240" height="40" as="geometry" />
        </mxCell>
        <mxCell id="VD8CVpqhnoBm4fBh5e66-14" value="" style="rounded=0;whiteSpace=wrap;html=1;fillColor=none;strokeColor=#d6b656;fontSize=20;" parent="1" vertex="1">
          <mxGeometry x="840" y="210" width="240" height="590" as="geometry" />
        </mxCell>
        <mxCell id="VD8CVpqhnoBm4fBh5e66-18" value="" style="image;html=1;image=img/lib/clip_art/general/Empty_Folder_128x128.png" parent="1" vertex="1">
          <mxGeometry x="-25" y="220" width="70" height="70" as="geometry" />
        </mxCell>
        <mxCell id="VD8CVpqhnoBm4fBh5e66-20" value="" style="verticalLabelPosition=bottom;html=1;verticalAlign=top;align=center;strokeColor=none;fillColor=#00BEF2;shape=mxgraph.azure.script_file;pointerEvents=1;" parent="1" vertex="1">
          <mxGeometry x="10" y="250" width="40" height="50" as="geometry" />
        </mxCell>
        <mxCell id="VD8CVpqhnoBm4fBh5e66-22" value="" style="image;html=1;image=img/lib/clip_art/general/Empty_Folder_128x128.png" parent="1" vertex="1">
          <mxGeometry x="-25" y="360" width="70" height="70" as="geometry" />
        </mxCell>
        <mxCell id="VD8CVpqhnoBm4fBh5e66-23" value="" style="verticalLabelPosition=bottom;html=1;verticalAlign=top;align=center;strokeColor=none;fillColor=#00BEF2;shape=mxgraph.azure.script_file;pointerEvents=1;" parent="1" vertex="1">
          <mxGeometry x="10" y="400" width="40" height="50" as="geometry" />
        </mxCell>
        <mxCell id="VD8CVpqhnoBm4fBh5e66-24" value="CRM" style="text;html=1;align=center;verticalAlign=middle;whiteSpace=wrap;rounded=0;" parent="1" vertex="1">
          <mxGeometry x="-10" y="300" width="60" height="30" as="geometry" />
        </mxCell>
        <mxCell id="VD8CVpqhnoBm4fBh5e66-25" value="ERP" style="text;html=1;align=center;verticalAlign=middle;whiteSpace=wrap;rounded=0;" parent="1" vertex="1">
          <mxGeometry x="-10" y="450" width="60" height="30" as="geometry" />
        </mxCell>
        <mxCell id="VD8CVpqhnoBm4fBh5e66-30" value="" style="endArrow=none;html=1;rounded=0;" parent="1" edge="1">
          <mxGeometry width="50" height="50" relative="1" as="geometry">
            <mxPoint x="80" y="479" as="sourcePoint" />
            <mxPoint x="-80" y="479" as="targetPoint" />
            <Array as="points">
              <mxPoint x="130" y="480" />
              <mxPoint x="50" y="479" />
            </Array>
          </mxGeometry>
        </mxCell>
        <mxCell id="VD8CVpqhnoBm4fBh5e66-31" value="&lt;font style=&quot;font-size: 15px;&quot;&gt;Object Type: CSV Files&lt;/font&gt;&lt;div&gt;&lt;font style=&quot;font-size: 15px;&quot;&gt;&lt;br&gt;&lt;/font&gt;&lt;div&gt;&lt;span style=&quot;background-color: transparent; color: light-dark(rgb(0, 0, 0), rgb(255, 255, 255));&quot;&gt;&lt;font style=&quot;font-size: 15px;&quot;&gt;Interface: Files in Folder:&amp;nbsp;&lt;/font&gt;&lt;/span&gt;&lt;/div&gt;&lt;/div&gt;" style="text;html=1;align=center;verticalAlign=middle;whiteSpace=wrap;rounded=0;" parent="1" vertex="1">
          <mxGeometry x="-57.5" y="480" width="175" height="100" as="geometry" />
        </mxCell>
        <mxCell id="VD8CVpqhnoBm4fBh5e66-33" value="" style="html=1;verticalLabelPosition=bottom;align=center;labelBackgroundColor=#ffffff;verticalAlign=top;strokeWidth=2;strokeColor=#d79b00;shadow=0;dashed=0;shape=mxgraph.ios7.icons.data;fillColor=#ffe6cc;" parent="1" vertex="1">
          <mxGeometry x="290" y="320" width="55" height="80" as="geometry" />
        </mxCell>
        <mxCell id="VD8CVpqhnoBm4fBh5e66-34" value="" style="html=1;verticalLabelPosition=bottom;align=center;labelBackgroundColor=#ffffff;verticalAlign=top;strokeWidth=2;strokeColor=#d6b656;shadow=0;dashed=0;shape=mxgraph.ios7.icons.data;fillColor=#fff2cc;" parent="1" vertex="1">
          <mxGeometry x="932.5" y="320" width="55" height="80" as="geometry" />
        </mxCell>
        <mxCell id="VD8CVpqhnoBm4fBh5e66-35" value="" style="html=1;verticalLabelPosition=bottom;align=center;labelBackgroundColor=#ffffff;verticalAlign=top;strokeWidth=2;strokeColor=#82b366;shadow=0;dashed=0;shape=mxgraph.ios7.icons.data;fillColor=#d5e8d4;" parent="1" vertex="1">
          <mxGeometry x="602.5" y="320" width="55" height="80" as="geometry" />
        </mxCell>
        <mxCell id="VD8CVpqhnoBm4fBh5e66-36" value="&lt;font style=&quot;font-size: 20px;&quot;&gt;Raw Data&lt;/font&gt;" style="text;html=1;align=center;verticalAlign=middle;whiteSpace=wrap;rounded=0;" parent="1" vertex="1">
          <mxGeometry x="270" y="400" width="100" height="30" as="geometry" />
        </mxCell>
        <mxCell id="VD8CVpqhnoBm4fBh5e66-37" value="&lt;font style=&quot;font-size: 20px;&quot;&gt;Busines-Ready Data&lt;/font&gt;" style="text;html=1;align=center;verticalAlign=middle;whiteSpace=wrap;rounded=0;" parent="1" vertex="1">
          <mxGeometry x="866.25" y="400" width="187.5" height="30" as="geometry" />
        </mxCell>
        <mxCell id="VD8CVpqhnoBm4fBh5e66-38" value="&lt;font style=&quot;font-size: 20px;&quot;&gt;Raw Data, Normalized, Standarised Data&lt;/font&gt;" style="text;html=1;align=center;verticalAlign=middle;whiteSpace=wrap;rounded=0;" parent="1" vertex="1">
          <mxGeometry x="532" y="410" width="216" height="30" as="geometry" />
        </mxCell>
        <mxCell id="VD8CVpqhnoBm4fBh5e66-40" value="&lt;div style=&quot;text-align: left;&quot;&gt;&lt;span style=&quot;font-size: 15px; background-color: transparent; color: light-dark(rgb(0, 0, 0), rgb(255, 255, 255));&quot;&gt;&lt;b&gt;Object Type:&lt;/b&gt; Table&lt;/span&gt;&lt;/div&gt;&lt;div&gt;&lt;font style=&quot;font-size: 15px;&quot;&gt;&lt;br&gt;&lt;/font&gt;&lt;div style=&quot;text-align: left;&quot;&gt;&lt;span style=&quot;background-color: transparent; color: light-dark(rgb(0, 0, 0), rgb(255, 255, 255));&quot;&gt;&lt;font style=&quot;font-size: 15px;&quot;&gt;&lt;b&gt;Load:&lt;/b&gt;&amp;nbsp;&lt;/font&gt;&lt;/span&gt;&lt;/div&gt;&lt;div&gt;&lt;ul&gt;&lt;li&gt;&lt;span style=&quot;background-color: transparent; color: light-dark(rgb(0, 0, 0), rgb(255, 255, 255));&quot;&gt;&lt;font style=&quot;font-size: 15px;&quot;&gt;Batch Processing&amp;nbsp; &amp;nbsp; &amp;nbsp; &amp;nbsp; &amp;nbsp; &amp;nbsp;&amp;nbsp;&lt;/font&gt;&lt;/span&gt;&lt;/li&gt;&lt;li&gt;&lt;span style=&quot;background-color: transparent; color: light-dark(rgb(0, 0, 0), rgb(255, 255, 255));&quot;&gt;&lt;font style=&quot;font-size: 15px;&quot;&gt;Full Load&amp;nbsp;&lt;/font&gt;&lt;/span&gt;&lt;/li&gt;&lt;li&gt;&lt;span style=&quot;background-color: transparent; color: light-dark(rgb(0, 0, 0), rgb(255, 255, 255));&quot;&gt;&lt;font style=&quot;font-size: 15px;&quot;&gt;Truncate &amp;amp; Insert&lt;/font&gt;&lt;/span&gt;&lt;/li&gt;&lt;/ul&gt;&lt;div style=&quot;text-align: left;&quot;&gt;&lt;span style=&quot;font-size: 15px;&quot;&gt;&lt;b&gt;No Transformations&lt;/b&gt;&lt;/span&gt;&lt;/div&gt;&lt;/div&gt;&lt;/div&gt;&lt;div style=&quot;text-align: left;&quot;&gt;&lt;span style=&quot;font-size: 15px;&quot;&gt;&lt;b&gt;Data Model: &lt;/b&gt;None (As-it-is)&lt;/span&gt;&lt;/div&gt;" style="text;html=1;align=center;verticalAlign=middle;whiteSpace=wrap;rounded=0;" parent="1" vertex="1">
          <mxGeometry x="208.75" y="518" width="217.5" height="100" as="geometry" />
        </mxCell>
        <mxCell id="VD8CVpqhnoBm4fBh5e66-43" value="&lt;div style=&quot;text-align: left;&quot;&gt;&lt;span style=&quot;font-size: 15px; background-color: transparent; color: light-dark(rgb(0, 0, 0), rgb(255, 255, 255));&quot;&gt;&lt;b&gt;Object Type:&lt;/b&gt; Table&lt;/span&gt;&lt;/div&gt;&lt;div&gt;&lt;font style=&quot;font-size: 15px;&quot;&gt;&lt;br&gt;&lt;/font&gt;&lt;div style=&quot;text-align: left;&quot;&gt;&lt;span style=&quot;background-color: transparent; color: light-dark(rgb(0, 0, 0), rgb(255, 255, 255));&quot;&gt;&lt;font style=&quot;font-size: 15px;&quot;&gt;&lt;b&gt;Load:&lt;/b&gt;&amp;nbsp;&lt;/font&gt;&lt;/span&gt;&lt;/div&gt;&lt;div&gt;&lt;ul&gt;&lt;li&gt;&lt;span style=&quot;background-color: transparent; color: light-dark(rgb(0, 0, 0), rgb(255, 255, 255));&quot;&gt;&lt;font style=&quot;font-size: 15px;&quot;&gt;Batch Processing&amp;nbsp; &amp;nbsp; &amp;nbsp; &amp;nbsp; &amp;nbsp; &amp;nbsp;&amp;nbsp;&lt;/font&gt;&lt;/span&gt;&lt;/li&gt;&lt;li&gt;&lt;span style=&quot;background-color: transparent; color: light-dark(rgb(0, 0, 0), rgb(255, 255, 255));&quot;&gt;&lt;font style=&quot;font-size: 15px;&quot;&gt;Full Load&amp;nbsp;&lt;/font&gt;&lt;/span&gt;&lt;/li&gt;&lt;li&gt;&lt;span style=&quot;background-color: transparent; color: light-dark(rgb(0, 0, 0), rgb(255, 255, 255));&quot;&gt;&lt;font style=&quot;font-size: 15px;&quot;&gt;Truncate &amp;amp; Insert&lt;/font&gt;&lt;/span&gt;&lt;/li&gt;&lt;/ul&gt;&lt;div style=&quot;text-align: left;&quot;&gt;&lt;span style=&quot;font-size: 15px;&quot;&gt;&lt;b&gt;Transformations&lt;/b&gt;&lt;/span&gt;&lt;/div&gt;&lt;/div&gt;&lt;/div&gt;&lt;div style=&quot;text-align: left;&quot;&gt;&lt;ul&gt;&lt;li&gt;&lt;span style=&quot;font-size: 15px;&quot;&gt;Data Cleaning&lt;/span&gt;&lt;/li&gt;&lt;li&gt;&lt;span style=&quot;font-size: 15px;&quot;&gt;Data Standrization&lt;/span&gt;&lt;/li&gt;&lt;li&gt;&lt;span style=&quot;font-size: 15px;&quot;&gt;Data Normalization&lt;/span&gt;&lt;/li&gt;&lt;li&gt;&lt;span style=&quot;font-size: 15px;&quot;&gt;Derived Columns&lt;/span&gt;&lt;/li&gt;&lt;li&gt;&lt;span style=&quot;font-size: 15px;&quot;&gt;Data Enrichment&lt;/span&gt;&lt;/li&gt;&lt;/ul&gt;&lt;/div&gt;&lt;div style=&quot;text-align: left;&quot;&gt;&lt;span style=&quot;font-size: 15px;&quot;&gt;&lt;b&gt;Data Model: &lt;/b&gt;None (As-it-is)&lt;/span&gt;&lt;/div&gt;" style="text;html=1;align=center;verticalAlign=middle;whiteSpace=wrap;rounded=0;" parent="1" vertex="1">
          <mxGeometry x="530.5" y="580" width="217.5" height="100" as="geometry" />
        </mxCell>
        <mxCell id="VD8CVpqhnoBm4fBh5e66-44" value="&lt;div style=&quot;text-align: left;&quot;&gt;&lt;span style=&quot;font-size: 15px; background-color: transparent; color: light-dark(rgb(0, 0, 0), rgb(255, 255, 255));&quot;&gt;&lt;b&gt;Object Type:&lt;/b&gt; Table&lt;/span&gt;&lt;/div&gt;&lt;div&gt;&lt;font style=&quot;font-size: 15px;&quot;&gt;&lt;br&gt;&lt;/font&gt;&lt;div style=&quot;text-align: left;&quot;&gt;&lt;span style=&quot;background-color: transparent; color: light-dark(rgb(0, 0, 0), rgb(255, 255, 255));&quot;&gt;&lt;font style=&quot;font-size: 15px;&quot;&gt;&lt;b&gt;Load:&lt;/b&gt;&amp;nbsp;&lt;/font&gt;&lt;/span&gt;&lt;/div&gt;&lt;div&gt;&lt;ul&gt;&lt;li&gt;&lt;span style=&quot;background-color: transparent; color: light-dark(rgb(0, 0, 0), rgb(255, 255, 255));&quot;&gt;&lt;font style=&quot;font-size: 15px;&quot;&gt;Batch Processing&amp;nbsp; &amp;nbsp; &amp;nbsp; &amp;nbsp; &amp;nbsp; &amp;nbsp;&amp;nbsp;&lt;/font&gt;&lt;/span&gt;&lt;/li&gt;&lt;li&gt;&lt;span style=&quot;background-color: transparent; color: light-dark(rgb(0, 0, 0), rgb(255, 255, 255));&quot;&gt;&lt;font style=&quot;font-size: 15px;&quot;&gt;Full Load&amp;nbsp;&lt;/font&gt;&lt;/span&gt;&lt;/li&gt;&lt;li&gt;&lt;span style=&quot;background-color: transparent; color: light-dark(rgb(0, 0, 0), rgb(255, 255, 255));&quot;&gt;&lt;font style=&quot;font-size: 15px;&quot;&gt;Truncate &amp;amp; Insert&lt;/font&gt;&lt;/span&gt;&lt;/li&gt;&lt;/ul&gt;&lt;div style=&quot;text-align: left;&quot;&gt;&lt;span style=&quot;font-size: 15px;&quot;&gt;&lt;b&gt;Transformations&lt;/b&gt;&lt;/span&gt;&lt;/div&gt;&lt;/div&gt;&lt;/div&gt;&lt;div style=&quot;text-align: left;&quot;&gt;&lt;ul&gt;&lt;li&gt;&lt;span style=&quot;font-size: 15px;&quot;&gt;Data Integration&lt;/span&gt;&lt;/li&gt;&lt;li&gt;&lt;span style=&quot;font-size: 15px;&quot;&gt;Aggregations&lt;/span&gt;&lt;/li&gt;&lt;li&gt;&lt;span style=&quot;font-size: 15px;&quot;&gt;Business Logics&lt;/span&gt;&lt;/li&gt;&lt;/ul&gt;&lt;/div&gt;&lt;div style=&quot;text-align: left;&quot;&gt;&lt;span style=&quot;font-size: 15px;&quot;&gt;&lt;b&gt;Data Model:&lt;/b&gt;&lt;/span&gt;&lt;/div&gt;&lt;div style=&quot;text-align: left;&quot;&gt;&lt;ul&gt;&lt;li&gt;&lt;span style=&quot;font-size: 15px;&quot;&gt;Star Schema&lt;/span&gt;&lt;/li&gt;&lt;li&gt;&lt;span style=&quot;font-size: 15px;&quot;&gt;Flat Table&lt;/span&gt;&lt;/li&gt;&lt;li&gt;&lt;span style=&quot;font-size: 15px;&quot;&gt;Aggregated Table&lt;/span&gt;&lt;/li&gt;&lt;/ul&gt;&lt;/div&gt;" style="text;html=1;align=center;verticalAlign=middle;whiteSpace=wrap;rounded=0;" parent="1" vertex="1">
          <mxGeometry x="850" y="600" width="217.5" height="100" as="geometry" />
        </mxCell>
        <mxCell id="VD8CVpqhnoBm4fBh5e66-47" value="" style="endArrow=none;html=1;rounded=0;fontStyle=1" parent="1" edge="1">
          <mxGeometry width="50" height="50" relative="1" as="geometry">
            <mxPoint x="197.5" y="479.23" as="sourcePoint" />
            <mxPoint x="437.5" y="479.23" as="targetPoint" />
            <Array as="points">
              <mxPoint x="317.5" y="479.23" />
            </Array>
          </mxGeometry>
        </mxCell>
        <mxCell id="VD8CVpqhnoBm4fBh5e66-48" value="" style="endArrow=none;html=1;rounded=0;fontStyle=1" parent="1" edge="1">
          <mxGeometry width="50" height="50" relative="1" as="geometry">
            <mxPoint x="520" y="480" as="sourcePoint" />
            <mxPoint x="760" y="480" as="targetPoint" />
            <Array as="points">
              <mxPoint x="640" y="480" />
            </Array>
          </mxGeometry>
        </mxCell>
        <mxCell id="VD8CVpqhnoBm4fBh5e66-49" value="" style="endArrow=none;html=1;rounded=0;fontStyle=1" parent="1" edge="1">
          <mxGeometry width="50" height="50" relative="1" as="geometry">
            <mxPoint x="840" y="480" as="sourcePoint" />
            <mxPoint x="1080" y="480" as="targetPoint" />
            <Array as="points">
              <mxPoint x="960" y="480" />
            </Array>
          </mxGeometry>
        </mxCell>
        <mxCell id="VD8CVpqhnoBm4fBh5e66-51" value="" style="shape=flexArrow;endArrow=classic;html=1;rounded=0;entryX=0.042;entryY=0.305;entryDx=0;entryDy=0;entryPerimeter=0;fontStyle=1;fillColor=#dae8fc;strokeColor=#6c8ebf;" parent="1" target="VD8CVpqhnoBm4fBh5e66-10" edge="1">
          <mxGeometry width="50" height="50" relative="1" as="geometry">
            <mxPoint x="100" y="390" as="sourcePoint" />
            <mxPoint x="160" y="350" as="targetPoint" />
          </mxGeometry>
        </mxCell>
        <mxCell id="VD8CVpqhnoBm4fBh5e66-52" value="" style="shape=flexArrow;endArrow=classic;html=1;rounded=0;entryX=0.042;entryY=0.305;entryDx=0;entryDy=0;entryPerimeter=0;fontStyle=1;fillColor=#dae8fc;strokeColor=#6c8ebf;" parent="1" edge="1">
          <mxGeometry width="50" height="50" relative="1" as="geometry">
            <mxPoint x="410" y="380" as="sourcePoint" />
            <mxPoint x="520" y="380" as="targetPoint" />
          </mxGeometry>
        </mxCell>
        <mxCell id="VD8CVpqhnoBm4fBh5e66-53" value="" style="shape=flexArrow;endArrow=classic;html=1;rounded=0;entryX=0.042;entryY=0.305;entryDx=0;entryDy=0;entryPerimeter=0;fontStyle=1;fillColor=#dae8fc;strokeColor=#6c8ebf;" parent="1" edge="1">
          <mxGeometry width="50" height="50" relative="1" as="geometry">
            <mxPoint x="748" y="370" as="sourcePoint" />
            <mxPoint x="858" y="370" as="targetPoint" />
          </mxGeometry>
        </mxCell>
        <mxCell id="VD8CVpqhnoBm4fBh5e66-54" value="" style="shape=flexArrow;endArrow=classic;html=1;rounded=0;entryX=0.042;entryY=0.305;entryDx=0;entryDy=0;entryPerimeter=0;fontStyle=1;fillColor=#dae8fc;strokeColor=#6c8ebf;" parent="1" edge="1">
          <mxGeometry width="50" height="50" relative="1" as="geometry">
            <mxPoint x="1090" y="370" as="sourcePoint" />
            <mxPoint x="1200" y="370" as="targetPoint" />
          </mxGeometry>
        </mxCell>
        <mxCell id="VD8CVpqhnoBm4fBh5e66-83" value="" style="image;aspect=fixed;html=1;points=[];align=center;fontSize=12;image=img/lib/azure2/power_platform/PowerBI.svg;" parent="1" vertex="1">
          <mxGeometry x="1220" y="240" width="69.24" height="92.33" as="geometry" />
        </mxCell>
        <mxCell id="VD8CVpqhnoBm4fBh5e66-84" value="" style="sketch=0;outlineConnect=0;fontColor=#232F3E;gradientColor=none;fillColor=light-dark(#0e1109, #61820b);strokeColor=none;dashed=0;verticalLabelPosition=bottom;verticalAlign=top;align=center;html=1;fontSize=12;fontStyle=0;aspect=fixed;pointerEvents=1;shape=mxgraph.aws4.iot_greengrass_component_machine_learning;" parent="1" vertex="1">
          <mxGeometry x="1270" y="618" width="78" height="78" as="geometry" />
        </mxCell>
        <mxCell id="VD8CVpqhnoBm4fBh5e66-85" value="" style="sketch=0;pointerEvents=1;shadow=0;dashed=0;html=1;strokeColor=none;labelPosition=center;verticalLabelPosition=bottom;verticalAlign=top;align=center;fillColor=#505050;shape=mxgraph.mscae.oms.log_search" parent="1" vertex="1">
          <mxGeometry x="1270" y="476" width="70" height="60" as="geometry" />
        </mxCell>
        <mxCell id="VD8CVpqhnoBm4fBh5e66-86" value="&lt;font style=&quot;font-size: 20px;&quot;&gt;&lt;b&gt;AD-Hoc&lt;/b&gt;&lt;/font&gt;&lt;div&gt;&lt;font style=&quot;font-size: 20px;&quot;&gt;&lt;b&gt;SQL Quiries&lt;/b&gt;&lt;/font&gt;&lt;/div&gt;" style="text;html=1;align=center;verticalAlign=middle;whiteSpace=wrap;rounded=0;" parent="1" vertex="1">
          <mxGeometry x="1236" y="546" width="146" height="52" as="geometry" />
        </mxCell>
        <mxCell id="VD8CVpqhnoBm4fBh5e66-87" value="&lt;span style=&quot;font-size: 20px;&quot;&gt;&lt;b&gt;Machine Learning&lt;/b&gt;&lt;/span&gt;" style="text;html=1;align=center;verticalAlign=middle;whiteSpace=wrap;rounded=0;" parent="1" vertex="1">
          <mxGeometry x="1230" y="748" width="146" height="52" as="geometry" />
        </mxCell>
        <mxCell id="VD8CVpqhnoBm4fBh5e66-88" value="&lt;span style=&quot;font-size: 20px;&quot;&gt;&lt;b&gt;BI Reporting &amp;amp; Analysis&lt;/b&gt;&lt;/span&gt;" style="text;html=1;align=center;verticalAlign=middle;whiteSpace=wrap;rounded=0;" parent="1" vertex="1">
          <mxGeometry x="1180" y="348" width="280" height="52" as="geometry" />
        </mxCell>
        <mxCell id="VD8CVpqhnoBm4fBh5e66-97" value="" style="shape=image;imageAspect=0;aspect=fixed;verticalLabelPosition=bottom;verticalAlign=top;image=data:image/webp,UklGRpQYAABXRUJQVlA4WAoAAAAYAAAA/wAA/wAAQUxQSNwIAAAN8IZtmyFJ27bte0RmdY8u27Zt27Zt27Zt27Zt3LaNPj3dVZlx7D8mMzKOrMnKy1dETACmnBW6W2Geq+2Z6dTJH1oLAJtXH0fNslM+KIIQ2tcdizkupFQlADFFzHRWiAAQm7n2R//P7FgixdQTUywh22wYcmRjSCXQ1D0tUokxMmSZJkaWM8pw1UOJgxpbdcVrxGqY6l/+M+Uly5pY6uDVorq0+Js/p5yo6nVn5LAFAALE4k1nBAcZ3vLpmLy2rlWph+lbJ1KTctZXB7Aj4fNvDuYEQBSGE/1CQQre1KnetAA7hPTQf5sUQApCNzFKggVyWWKUAoVuiphagj1TTrAH1OT8ylVUCfaoCDUvSLBEP4sg2IwQmkf9tzSEzRletRAhrh72X7UGhXhupPkA2JePxyCgukHEke0XUovhK0BzAhEFU92gk1UTC0CGWZlKIMUuJKQSf/T/r8XVxgQgpnqeUTEiAkBMNsuEY16TIBDVyTHTjnttAwACoA0kBp+manOC1U6WygCs0N0KhWPwaeomq2prH0ujS+aD1SKnQSuf8mp7yifzwd4iZGiFxmf01E2vcDg4KJ2QwK6AK15lETzswNe/HKyMe7DrXeOk4JFWDdhFVA84FOlg+3/waWpktz7/wgM1MgOueEv44BefX5sbXmLLpUJ2fPAZ4IK/+tjIgNWigSurPsASfOsWa9tWDVxZ5aAVXOsGo4+offJDdEJMaxNR+wys6IOYRve7AOXDPDlxQyPoM5BO65xi68OYleRT2fjaauXDOiclp0VanwqVz8BIH1TtyAxP/+giOYTdC3y4Fjva6r1PPUXyiKvTIa2H4Yf/cpI87MBtqgz7xE4lh7B9Roz+P3cgB0DnJPp3dk+UB1pA6/KBjyE5EAdfuCV2iO3T/tc8cCJgYyPhasGQGYx0gYR1JeFq0ZAbLMBVwtglH1jIEQxHackHFrIE8/m949SZ37KV2KO4vM+/UzNr/+URkPvDwzMLkAXLCEbM74iQgWCaX38wc8iQ5plljJmhJ82AcK5KHYrH/ud4ZD2bP3XgyydveYQtPvnEYOOgzvFYAlB17FNX1GYHYIEKRwpVi5FSZ7wFRADp3Sts/qI6QGG8SRSAarnADCTYBWo8qEAAiMkjBeuJmq4UU0+wUOyoHQJCD4JNFQNiD6LZpAj/9SKDOsLicrCJOu7ZLdRB8JTQtOy8L6H3MKBJEg6/c4VeAdMCMCLTDBPNiNwkTKtSznQrZf2BkRyBqAEU/bRJaQQQBwjy26jDwm+5WA7YWm35rezoxBKieigWkVuwC30wGn1s+18F9hGLT55nL/gopNv/RTCfEEq0VdtDUFURlYDYI6jIGLfPBMKZGMizLODOf1/C2awE2sguMaEtsiixqtXFOsUSrY1AorxA5kFyowhf6rw3bDjM0i66A85/1ZolflnAFv8EECBO/dkDiYO09ZCvxuSGALoNJt0AOQW77F1igQiAPZe7L4pcoAACeuO5I0r+7wnYUC0klIzol6GolQDZBUPJIGyqRCySy1AmFMkMRUBtKr+qVRH2qUsABECAWGlmsEgmuwiAAAhQCLa5qAhzVMaKkD2pNbPl3nJ3b29vd2+5t7u3t7s6N2xjYZFslrl8gXD4Um8jAHHnpsfasqnqRR2QrxGIcuMguVEcwXr+pAAQL0ARwOpvQPSTIEHIDCMk6DacbqCcDF95NmwQ20MfPSgekeKXnrzfSoQSFoRO0nJMkCBsrML//iWKXi6iU/yff9lDSSsBC10wKGPMhr++t1E+XJ7rvbXYIzZ3/oct+VDhAMwFIEtYMPRTochR+sQ/hTfBSwTk2i/UOI1SKgELGYBNB+kGiwn5wQLcJa+NUvKDhQGC+f2BkWSWTVbIkiZGyppuy5pY6kzPr9WluPuoY6kJok7xsn2JXWye+B/UpJzihgA7AH1qF9O872YM6BTwueMmBTCLhu6YAiZaFlMXQgo4qhoFIFhwQEToQbCpQkTsQTAdTQJAAKhaj3l7+F8oAJXtmwMWrCvYaAx/elcLApsFoI2PAaGDiGksgBrMx/TPVduBQ4bxEr3a+ISTrr1T64h4bA0bjfpm4RJznzmaZ8r5Q2NFZVCcYQQzQM0v7dIygu2fW4Z/vsEyqodpu4LNK6D9f2HeEwM1vzTkt5DpJCqLopPWhk6isig6aXRygpglyGl95QQxS5DT+GPwaeo2h1VT+1hamxh8mrrJqtrax9LIgj3jbsdEB1v8vcAuYvszZ2jo0J7m1S+NaS1ievRD/69yUP1fBnYR9YfPswoO6ZTvekawUQFn5iE6gMgO56nha/9FrQV1hnAKeBLZPNc2PAX9O8ZuweBK5sDgGwxrK5oLEHIguSAYRk8En4HBCdTaEMEpn/QBNbrfDWoh+TBkmXyibWYB0WdgoA9iGh03AOHP/+9Eedi+a8UM+9bxUQ48cAqMXHjpV5UcuDzPGyqxQ9y7x//Ucojh/EjrkfDWdyM5ECd/07bYIbYP+U954DjAxvbn/wJ5IF4poD99Cy08V4AKMUdFAMJXRHYwwlcYeyBcU9Uik1UTXSBDYeWUlhPELEFO4zf5IMUcGZJPYeo0b9xOPCKd4v1vDFZk7u67BgOOFHb+lJphspg6EBPmeUTsQrB59kf/z2oWEZXFIpoRKgIxQ1CRObl9QAVW9W7GdnuyEnac5kLV3vXlx8dB2joMsKPCPV52YhykrX+41pKaB8ACB+Fbb6Pk4iRhNooqwgyoBI2YkyySzRIgtNGI6qE4hqO0qB6KU0OCPQg2VQTYA2pq0m6wnpgOTJUdjqknaN+0GP7+RsuoDrYHA+QltiUYM8xKVCk4Cf97jRMrdTBtRdiUAGkHo65QlcgOoQQWjXwA2xGmm8iWl+EXP1lqENuT36XqsvAnX9nSsGpRQ04gsjUxynM3fPtdsEHAgacvxK6vf6a1YQ1GqLzNNhAFU92iv2ojSia/DdpUAilmCKnIH/3/G/Ciuqh5RoBdoGaY8H8PaaAjYrw4bH4Bu19u0b0ENMcY0C/DdANWUDgg0A4AAFBYAJ0BKgABAAE+cTKTRiSjIaEv1juQkA4JYm7iwAWa7fgGIAFsBlb9+/rv7l+HjKfkb8L/a/2h6S3lvw78lX5fwCi19cH7n7xvm3/kv8p/WPdZ+j/YA/uH9M/XvrY/1r0BfzT+zf9T+6e8V/ov9t/mPcf/ZfUA/WH/z+1p6nn83/4n//9wD+D/2r/teuR+1v/0+U/+wf8T92vaB//XsAf//1AOoH6wf3X8aPib5QfnfyQ/bfgUXii4P2azAbg3lszIJQDKz+c+g7/VfpA+pj/J8mf1z6OHVY9CX9lU82w1DtDlFQrPv213BeD7QNQ7wT21qODnjNBBbq4s9T5vxOfrVCcoDrZEex7TVcT+jU08wrqz6GaeO9XBWU4ZcFQv0V3+5nFcu4OsR6SBNLlmj+9O/SXb3i9//u+Zk++xCjk+QJnROobfq5B/8mVzokZpKSx/rGEtUI0c9220lO3FyXTrpxf+RkeNAsKxhjwKyf5UrpgYebxyPWyFqF5iU23zYIRagTenrRPK/nq/G3RqrGsvo2o4XckpxWxFuXqJb2jzHcDvwaz46cLY64TH9XO+k96lSjGikJChaQqRvwlrKEqJXJVv/ygfWdVCRJpvHwjOB3fLpv6bDS8viT7/EAtiVHyVxfM8dmlwYtKQ0TeQWRywAeUxA7hEO52dgbVHB5MN++GkDRSGjBG+iqm25cCqa0NEXD7Q+F5r0e8CmDFT3fbNxpcPirZm+XycnGz7VvAcoIOt4BQ5FRMsQJdwKr/dNENeXvEP+I3CEz5J29IsVUPiiwWCkXCsJ1XZST1/3r1VECpb7CTgRKG3WT/h8LuskDpkr7MNcW8XA/ySmPu2RkvytAdd4C2UamFrV21jseOuZWYVj9gfaAUgccCaKRKDQjEgnlmcF2tBZrffU7k4HbwPqXxA0FID+K0+I6LTVfTjpaa3wORLvHRaaQAA/uf1QEjYv45JMAIWZgqBIUSDXd/n/4mZ/XuUHqYkQQr0ozWnXCNlHTBkN1ctVfsTTp2KY8CxHo+uaERvfmsH5UFMrC4RacAABh5b19AXo27lIew4UeYniLHqBQbVIxef4S5KIB7L4lTkNkui6aApjoWvKfabVjQCMZiiFR8H46C/f8kg57H/RDzJd9cCyACEYkJKO+nCgLrJzTO1x5///GR/1RYX+ZaDnpGxnIvZKguTWTaijilNgWWHBmdHADxzP55OrEXUHpUtw8iBaxqKzms6J3CQ44c2UaAyt2hsHiE4FpEgdXhf7XW9oiO09YmvLHgVgs3mbXiC+eiQI8zwI38jBfr01ax+eAetFX7n6N3El3xTG1i8lklbz1oDSu8RYX0f8y49e+pfKAkwejVXYY0x3wO2I86ealmzLRh3aZyr8ZmMfp2ahMQGxQqT0ShJSHDZ5/ZRwbcDKsHoZ2yM4nQEWj1+nzvqTtXKW5nOvZ/fn9EcL/+hxIoZt9qAwHi0wldIWGf7CFWLcMK0XwxU5ZItfjfmKvaMjqLQn7bCTmaczdUaMZqxkM7PKCeAt0nq5TACA8uuLFIQskixTvG+fEFqrwHGzVzkFKuLv/WJ7eqCJCpVDvJo8k7ehVYg4d8k9D4zE2m/4vRNzh7TKJPgfbkvS3Cxr8q1t0hErOX91ClokC07OqbawOIgnmUOON3gG3vB+DU/clXHqNAONjC2Nup3Ti3yPMfK5LmQIDNkVXJsz+e0ZTmtaY7zcYqjuzBe6FPuSkKm/SIHd29xhUSTfOT6MSFBDSMQTNIQ+ZDGR6gkZT4b087jRVIzYxO8smFH3wCcb9y7zRvLvabgG/G566L7//+YLkoNJOqt7+himd1gS7d/LWS0EwXqPjFcpLBksPb8Ewh+8CdX4+xPTEU4fW90ATINhBNpcg+5VU7mzXGqifFB3cGjwC6LZ+eY4Vo+uGbScazrJPHcmEhqPtQ24evj+hZiP9DczSBFa3eTEl7+3YYSvqzbH/BGOCFRpm+aHis2IBSWjaEcaTvUBKThLo1T92Rk27E52wZJy+VjMiGeuZHxJDGQuAfvN1j9YGyAdtV7yvSDYY8fe84bSL56Li4jZZte55Qzax6DKgHq81x0uZO+QIjCtRCe8uOL1jy9gVd527yQFOZPfVVJqJ/uAPG9htojVQAA5T34CToXX5K4b///Zw5zoxMHWwru0J9jc61OxlCDGPwX8ReYo7Tai+FA4DHcByJhWFRxUFmV+WwxqjxGOqfM7mGIy/KovpxspN0dOaPa3jW3eKwi0WgPkq64ygsQInhIBvzEPfvTotrov//nUHzK1LRj5iVU2ssHHjKNBkvnf1qLV2dx+rDwBclA/LL/1Awds4pUvs/Ti085cEmXqsXRmP769wsfeh45IB015BFE83FQfXSEatdMQ7gFHd62D+gVJmcqN+QwStOW2Sy3+ZrXpmtgmYFN0FUXQsdY33nU7ndsJ985G7gtQ7k+4Fc3VfLpxpFDJJx2iKCB57xG8OEGLscOzhRnnYaQ8ca6Y2+jhddIA7d1mgFAE/o9f8TgzdKicf3Re/0BkgPfawEVyfS1YjAL4nkEq5wBzYg9Jt+NC5KBH+x2IblnTO9snW9T0AmpE8rX/ZhQYY8/EFeQ11VMsjA3h7TYGreOZI4piiZDtkb/T2P1pXHcLstVDCfqMzOv8+I0oc5E3pc5QLGI9F9/d24/c8ZrPw4co/r4ZXqganH+0NA9UiwmsfXrQ5ozbj0AF3hVLMKAsbwwJWM+xQ7n6f/HBQN1X8NZEbjphX2qMMO8WK1D89Im5NUeklsIL2jBpgaB7l43nQSREBsXOGLd0i3yR6ufQmdnVYIn1E5pZtymJJF/amjGmCHwAlSnjZ90JsxLfmtsdnDJYSviYTPX+mFJOg7nCVXOq+x5mKyj5l6pKkg8HfEIgMybmyqqbkz70zrIuHrW6nAWnEY6vXvB8IrpPfGUTLY/z1+RvyfmfOs2Xof1XF7VLNaNGm5qHkLFg4mshzuGwPj6cze9Uqhps1EC6/fJEOtdMe18wL48oi3hfAgms9KAIaz4FLyPB+QAwhOkT1Dm+8CGaA+KMgJiGim4zWi6qp4clpHx4rm3vdAYmrruyD4SPbxJ1suVg9mLplUfNO3mFdB4kehpM9rA43KaJhDT1779kX7U1Pbf/WkGb8Y/+cyqAccFwifSNZP2jOvEhu3oIyCakX1sz4Z8aKU4JKoeYkr8OmJ4Y2MZHwfjyDvPzrAQLL8/r9uS75uBI+zof6n17L7ogq7Ksr4pgevfmlgk/5R30mUJTGyLdPBpP0CBIup3GIxp5QsscLqpOkJNfZp2cW2jkXqzinVsuBKDxlzkd5pKcbwctA5QdnnO/HXCZppSzuK94+J8BzIo+x54EEG9LJKAXXproD7CEo768f/HVm8YRqn0/LRQIR/K2TRgml+enBENSksFsH/ph8j73XSJeVrzbP87QVzb3CxyAUHzPtw3wF041uG71RiFcuEbXYhcwfw3W2jyFwyaiGd8Ec1AnWXd9Yc9GsRQOeeX00a3e4djXjWSjRTHD+Y4/ST7d1BVHdYIHs4f524BzRzUDCfSgwUtIbKaB4fGAlnnnsqQMrB315uLWr881ysRMUM7W38vS+3L3PfMWeuVhOXx/J70ZkxvGUkhzrHZCK+OWm3KRtK8axkFD6Kgbxd02yP4oVAtsvKk3Y/IYKhrjEhPz7jwzYi4STnww7PdK/i96c+LkRs7FESjzeJxhxvwcCo7VyTihX2t8R7B1ZFL6yqrwbCqetxcQAFJSankf3xg35wC4K0Nbjzue5AAyh9kaCqEFTuDiy/nt3R4Hp8H/jK9jCfrPisLfE0a/HRh4gADExla3WJYd53daoL6JOkhrNucpfhWjFcuvJV1ig9R4WBUQpzgm8UO7bqrPDNCAH9LX4gBuUtALb867mArQ6rn974GtLs+ggNK8+Cy4qWsnv2qk1caVL8He3ngt0TIHnPjwq1jpnwyYqVnXLtD/vT9SVLDEr4Lj+x4+q5UYebIXJBpw3T1Yu7yfsbtteNBlpuzTT6fWqz1rXavAY1ECbsDzjylubfKWR2EAeYtqrLkKpKCRtJs/NArYdZpnSxkrXJDcLS19eP8n9zEHeMqJyeUKnGOA3EWABDoLmWwM0KHkMIfg1HnboyQaY4WC/lPQE59zBHR3G7a5inTsnw2btrLoXv26yLid1HhM8qg+Eeg9t0Cuao4HdI76hjn/TAiSw9v1k2yJuEGfOlQuZRdclp+NAjQcquyI7VjwQzDgtuI9EiegrBguvNaeqzkp9+aczPqMovHhWRR2v8gYMG2shGEDzIVEEebpkr5Oe4OPNKCTydB913Y2DRPlnKTFgN9609ufHDVznVoSOB/Y/VceEkgiVzlMRHngg/3tLlchgieAUOQfdI5DcjrSmHOukzq6zAUlBkht7dOrBb1MjhpSthWl7lLfcsvFJUoaDKI4m4821DegZ4Q+R0GI+uqqdW0tTEwDs6Le16tRqpn2gUS4kd/j0GnwC8LzeM4E6fwOvtmTDATY7HXKgB2mJSjkhsF5uEmWQJa5r1m0yz+ywGE/CgjbhIqzMLYT6kJJeell5FpFRw9mQZaUBYeU/pkahdcHWuak1s1TDYYjb61GfAK2XdAPBp0gB3e81B3ZE4iEtwSk+OuM9NBm0zvkmvjd9aXOMJ5rfifFaaOQeIYYPf4pgA4xGBUbbmZl4M0yH+WOBJC+9gsjMbYk+BWesTLCFDCo6ARC7skjb+313PAbvyGnZD/y9jnHNQbKGXW6aG9nJsE0Snv2AStxVZxBNXshJCOjxUc65LmUI2Tddz4gZM+PqUhx3gIEB2AO5wWCOr+dq7vbFTAcmjnWwiJQKeDB3+yUedqBmJnzikBtb0jwi2ufwIvW9bG6thZnXoLIxMtOvkMf3VwcDtCWi+IouA2iLoXWtSQl3VmrF+XzV2xFXFz9VdeO0f/SkZmusUqtJxBLaFb4HO1VgHGtozzE6g4Z8KcKmXV4ewXCw5av2P294/x6+zImxG9JL64wAAAQesEmbSxMk02NgQgh7yK6YKexljEuTxdfhVJmxi0wAAAAEVYSUa6AAAARXhpZgAASUkqAAgAAAAGABIBAwABAAAAAQAAABoBBQABAAAAVgAAABsBBQABAAAAXgAAACgBAwABAAAAAgAAABMCAwABAAAAAQAAAGmHBAABAAAAZgAAAAAAAABIAAAAAQAAAEgAAAABAAAABgAAkAcABAAAADAyMTABkQcABAAAAAECAwAAoAcABAAAADAxMDABoAMAAQAAAP//AAACoAQAAQAAAAABAAADoAQAAQAAAAABAAAAAAAA;" parent="1" vertex="1">
          <mxGeometry x="1310" y="228.16" width="116" height="116" as="geometry" />
        </mxCell>
      </root>
    </mxGraphModel>
  </diagram>
</mxfile>
